<svg width="220" height="190" viewBox="0 0 220 190" fill="none" xmlns="http://www.w3.org/2000/svg">
<g filter="url(#filter0_i)">
<ellipse cx="59" cy="55.5" rx="59" ry="55.5" fill="#ED0F1C"/>
<ellipse cx="158.5" cy="55.5" rx="61.5" ry="55.5" fill="#ED0F1C"/>
<path d="M109.308 190C109.308 190 219.327 93.8789 211.612 77.3581C203.898 60.8373 7.61932 50.8246 7.00276 77.3581C6.3862 103.892 109.308 190 109.308 190Z" fill="#ED0F1C"/>
<rect x="59" y="43" width="97" height="93" fill="#ED0F1C"/>
</g>
<path d="M83.3691 103H79.4141V77.7974C78.4619 78.7056 77.2095 79.6138 75.6567 80.522C74.1187 81.4302 72.7344 82.1113 71.5039 82.5654V78.7422C73.7158 77.7021 75.6494 76.4424 77.3047 74.9629C78.96 73.4834 80.1318 72.0479 80.8203 70.6562H83.3691V103ZM105.078 103H101.123V77.7974C100.171 78.7056 98.9185 79.6138 97.3657 80.522C95.8276 81.4302 94.4434 82.1113 93.2129 82.5654V78.7422C95.4248 77.7021 97.3584 76.4424 99.0137 74.9629C100.669 73.4834 101.841 72.0479 102.529 70.6562H105.078V103ZM115.977 78.5225C115.977 76.2227 116.555 74.2671 117.712 72.6558C118.87 71.0444 120.547 70.2388 122.744 70.2388C124.766 70.2388 126.436 70.9639 127.754 72.4141C129.087 73.8496 129.753 75.9663 129.753 78.7642C129.753 81.4888 129.08 83.5908 127.732 85.0703C126.399 86.5352 124.751 87.2676 122.788 87.2676C120.84 87.2676 119.214 86.5425 117.91 85.0923C116.621 83.6421 115.977 81.4521 115.977 78.5225ZM122.854 72.9634C121.873 72.9634 121.052 73.3882 120.393 74.2378C119.749 75.0874 119.426 76.6475 119.426 78.918C119.426 80.9834 119.756 82.4409 120.415 83.2905C121.074 84.1255 121.887 84.543 122.854 84.543C123.85 84.543 124.67 84.1182 125.315 83.2686C125.974 82.4189 126.304 80.8662 126.304 78.6104C126.304 76.5303 125.974 75.0728 125.315 74.2378C124.656 73.3882 123.835 72.9634 122.854 72.9634ZM122.876 104.187L140.498 70.2388H143.706L126.15 104.187H122.876ZM136.807 95.4414C136.807 93.127 137.385 91.1714 138.542 89.5747C139.7 87.9634 141.384 87.1577 143.596 87.1577C145.618 87.1577 147.288 87.8828 148.606 89.333C149.939 90.7686 150.605 92.8853 150.605 95.6831C150.605 98.4077 149.932 100.51 148.584 101.989C147.251 103.454 145.596 104.187 143.618 104.187C141.67 104.187 140.044 103.461 138.74 102.011C137.451 100.546 136.807 98.3564 136.807 95.4414ZM143.706 89.8823C142.71 89.8823 141.882 90.3071 141.223 91.1567C140.579 92.0063 140.256 93.5664 140.256 95.8369C140.256 97.8877 140.586 99.3379 141.245 100.188C141.904 101.037 142.717 101.462 143.684 101.462C144.695 101.462 145.522 101.037 146.167 100.188C146.826 99.3379 147.156 97.7852 147.156 95.5293C147.156 93.4492 146.826 91.9917 146.167 91.1567C145.508 90.3071 144.688 89.8823 143.706 89.8823Z" fill="white"/>
<defs>
<filter id="filter0_i" x="0" y="0" width="220" height="194" filterUnits="userSpaceOnUse" color-interpolation-filters="sRGB">
<feFlood flood-opacity="0" result="BackgroundImageFix"/>
<feBlend mode="normal" in="SourceGraphic" in2="BackgroundImageFix" result="shape"/>
<feColorMatrix in="SourceAlpha" type="matrix" values="0 0 0 0 0 0 0 0 0 0 0 0 0 0 0 0 0 0 127 0" result="hardAlpha"/>
<feOffset dy="4"/>
<feGaussianBlur stdDeviation="2"/>
<feComposite in2="hardAlpha" operator="arithmetic" k2="-1" k3="1"/>
<feColorMatrix type="matrix" values="0 0 0 0 0 0 0 0 0 0 0 0 0 0 0 0 0 0 0.25 0"/>
<feBlend mode="normal" in2="shape" result="effect1_innerShadow"/>
</filter>
</defs>
</svg>
