<svg width="220" height="190" viewBox="0 0 220 190" fill="none" xmlns="http://www.w3.org/2000/svg">
<g filter="url(#filter0_i)">
<ellipse cx="59" cy="55.5" rx="59" ry="55.5" fill="#ED0F1C"/>
<ellipse cx="158.5" cy="55.5" rx="61.5" ry="55.5" fill="#ED0F1C"/>
<path d="M109.308 190C109.308 190 219.327 93.8789 211.612 77.3581C203.898 60.8373 7.61932 50.8246 7.00276 77.3581C6.3862 103.892 109.308 190 109.308 190Z" fill="#ED0F1C"/>
<rect x="59" y="43" width="97" height="93" fill="#ED0F1C"/>
</g>
<path d="M79.3481 94.4966L83.3032 93.9692C83.7573 96.2104 84.5264 97.8291 85.6104 98.8252C86.709 99.8066 88.042 100.297 89.6094 100.297C91.4697 100.297 93.0371 99.6528 94.3115 98.3638C95.6006 97.0747 96.2451 95.478 96.2451 93.5737C96.2451 91.7573 95.6519 90.2632 94.4653 89.0913C93.2788 87.9048 91.77 87.3115 89.939 87.3115C89.1919 87.3115 88.2617 87.458 87.1484 87.751L87.5879 84.2793C87.8516 84.3086 88.064 84.3232 88.2251 84.3232C89.9097 84.3232 91.4258 83.8838 92.7734 83.0049C94.1211 82.126 94.7949 80.771 94.7949 78.9399C94.7949 77.4897 94.3042 76.2886 93.3228 75.3364C92.3413 74.3843 91.0742 73.9082 89.5215 73.9082C87.9834 73.9082 86.7017 74.3916 85.6763 75.3584C84.6509 76.3252 83.9917 77.7754 83.6987 79.709L79.7437 79.0059C80.2271 76.3545 81.3257 74.3037 83.0396 72.8535C84.7534 71.3887 86.8848 70.6562 89.4336 70.6562C91.1914 70.6562 92.8101 71.0371 94.2896 71.7988C95.769 72.5459 96.897 73.5713 97.6733 74.875C98.4644 76.1787 98.8599 77.563 98.8599 79.0278C98.8599 80.4194 98.4863 81.6865 97.7393 82.8291C96.9922 83.9717 95.8862 84.8799 94.4214 85.5537C96.3257 85.9932 97.8052 86.9087 98.8599 88.3003C99.9146 89.6772 100.442 91.4058 100.442 93.4858C100.442 96.2983 99.4165 98.686 97.3657 100.649C95.3149 102.597 92.7222 103.571 89.5874 103.571C86.7603 103.571 84.4092 102.729 82.5342 101.044C80.6738 99.3599 79.6118 97.1772 79.3481 94.4966ZM105.122 78.5225C105.122 76.2227 105.701 74.2671 106.858 72.6558C108.015 71.0444 109.692 70.2388 111.89 70.2388C113.911 70.2388 115.581 70.9639 116.899 72.4141C118.232 73.8496 118.899 75.9663 118.899 78.7642C118.899 81.4888 118.225 83.5908 116.877 85.0703C115.544 86.5352 113.896 87.2676 111.934 87.2676C109.985 87.2676 108.359 86.5425 107.056 85.0923C105.767 83.6421 105.122 81.4521 105.122 78.5225ZM112 72.9634C111.018 72.9634 110.198 73.3882 109.539 74.2378C108.894 75.0874 108.572 76.6475 108.572 78.918C108.572 80.9834 108.901 82.4409 109.561 83.2905C110.22 84.1255 111.033 84.543 112 84.543C112.996 84.543 113.816 84.1182 114.46 83.2686C115.12 82.4189 115.449 80.8662 115.449 78.6104C115.449 76.5303 115.12 75.0728 114.46 74.2378C113.801 73.3882 112.981 72.9634 112 72.9634ZM112.021 104.187L129.644 70.2388H132.852L115.295 104.187H112.021ZM125.952 95.4414C125.952 93.127 126.531 91.1714 127.688 89.5747C128.845 87.9634 130.53 87.1577 132.742 87.1577C134.763 87.1577 136.433 87.8828 137.751 89.333C139.084 90.7686 139.751 92.8853 139.751 95.6831C139.751 98.4077 139.077 100.51 137.729 101.989C136.396 103.454 134.741 104.187 132.764 104.187C130.815 104.187 129.189 103.461 127.886 102.011C126.597 100.546 125.952 98.3564 125.952 95.4414ZM132.852 89.8823C131.855 89.8823 131.028 90.3071 130.369 91.1567C129.724 92.0063 129.402 93.5664 129.402 95.8369C129.402 97.8877 129.731 99.3379 130.391 100.188C131.05 101.037 131.863 101.462 132.83 101.462C133.84 101.462 134.668 101.037 135.312 100.188C135.972 99.3379 136.301 97.7852 136.301 95.5293C136.301 93.4492 135.972 91.9917 135.312 91.1567C134.653 90.3071 133.833 89.8823 132.852 89.8823Z" fill="white"/>
<defs>
<filter id="filter0_i" x="0" y="0" width="220" height="194" filterUnits="userSpaceOnUse" color-interpolation-filters="sRGB">
<feFlood flood-opacity="0" result="BackgroundImageFix"/>
<feBlend mode="normal" in="SourceGraphic" in2="BackgroundImageFix" result="shape"/>
<feColorMatrix in="SourceAlpha" type="matrix" values="0 0 0 0 0 0 0 0 0 0 0 0 0 0 0 0 0 0 127 0" result="hardAlpha"/>
<feOffset dy="4"/>
<feGaussianBlur stdDeviation="2"/>
<feComposite in2="hardAlpha" operator="arithmetic" k2="-1" k3="1"/>
<feColorMatrix type="matrix" values="0 0 0 0 0 0 0 0 0 0 0 0 0 0 0 0 0 0 0.25 0"/>
<feBlend mode="normal" in2="shape" result="effect1_innerShadow"/>
</filter>
</defs>
</svg>
