<svg width="220" height="190" viewBox="0 0 220 190" fill="none" xmlns="http://www.w3.org/2000/svg">
<g filter="url(#filter0_i)">
<ellipse cx="59" cy="55.5" rx="59" ry="55.5" fill="#ED0F1C"/>
<ellipse cx="158.5" cy="55.5" rx="61.5" ry="55.5" fill="#ED0F1C"/>
<path d="M109.308 190C109.308 190 219.327 93.8789 211.612 77.3581C203.898 60.8373 7.61932 50.8246 7.00276 77.3581C6.3862 103.892 109.308 190 109.308 190Z" fill="#ED0F1C"/>
<rect x="59" y="43" width="97" height="93" fill="#ED0F1C"/>
</g>
<path d="M99.8486 78.6763L95.9155 78.9839C95.564 77.4312 95.0659 76.3032 94.4214 75.6001C93.3521 74.4722 92.0337 73.9082 90.4663 73.9082C89.2065 73.9082 88.1006 74.2598 87.1484 74.9629C85.9033 75.8711 84.9219 77.1968 84.2041 78.9399C83.4863 80.6831 83.1128 83.166 83.0835 86.3887C84.0356 84.9385 85.2002 83.8618 86.5771 83.1587C87.9541 82.4556 89.397 82.104 90.9058 82.104C93.5425 82.104 95.7837 83.0781 97.6294 85.0264C99.4897 86.96 100.42 89.4648 100.42 92.541C100.42 94.5625 99.9805 96.4448 99.1016 98.188C98.2373 99.9165 97.0435 101.242 95.52 102.165C93.9966 103.088 92.2681 103.549 90.3345 103.549C87.0386 103.549 84.3506 102.341 82.2705 99.9238C80.1904 97.4922 79.1504 93.4932 79.1504 87.9268C79.1504 81.7012 80.3003 77.1748 82.6001 74.3477C84.6069 71.8867 87.3096 70.6562 90.708 70.6562C93.2422 70.6562 95.3149 71.3667 96.9263 72.7876C98.5522 74.2085 99.5264 76.1714 99.8486 78.6763ZM83.6987 92.563C83.6987 93.9253 83.9844 95.229 84.5557 96.4741C85.1416 97.7192 85.9546 98.6714 86.9946 99.3306C88.0347 99.9751 89.126 100.297 90.2686 100.297C91.9385 100.297 93.374 99.6235 94.5752 98.2759C95.7764 96.9282 96.377 95.0972 96.377 92.7827C96.377 90.5562 95.7837 88.8057 94.5972 87.5312C93.4106 86.2422 91.9165 85.5977 90.1147 85.5977C88.3276 85.5977 86.8115 86.2422 85.5664 87.5312C84.3213 88.8057 83.6987 90.4829 83.6987 92.563ZM105.122 78.5225C105.122 76.2227 105.701 74.2671 106.858 72.6558C108.015 71.0444 109.692 70.2388 111.89 70.2388C113.911 70.2388 115.581 70.9639 116.899 72.4141C118.232 73.8496 118.899 75.9663 118.899 78.7642C118.899 81.4888 118.225 83.5908 116.877 85.0703C115.544 86.5352 113.896 87.2676 111.934 87.2676C109.985 87.2676 108.359 86.5425 107.056 85.0923C105.767 83.6421 105.122 81.4521 105.122 78.5225ZM112 72.9634C111.018 72.9634 110.198 73.3882 109.539 74.2378C108.894 75.0874 108.572 76.6475 108.572 78.918C108.572 80.9834 108.901 82.4409 109.561 83.2905C110.22 84.1255 111.033 84.543 112 84.543C112.996 84.543 113.816 84.1182 114.46 83.2686C115.12 82.4189 115.449 80.8662 115.449 78.6104C115.449 76.5303 115.12 75.0728 114.46 74.2378C113.801 73.3882 112.981 72.9634 112 72.9634ZM112.021 104.187L129.644 70.2388H132.852L115.295 104.187H112.021ZM125.952 95.4414C125.952 93.127 126.531 91.1714 127.688 89.5747C128.845 87.9634 130.53 87.1577 132.742 87.1577C134.763 87.1577 136.433 87.8828 137.751 89.333C139.084 90.7686 139.751 92.8853 139.751 95.6831C139.751 98.4077 139.077 100.51 137.729 101.989C136.396 103.454 134.741 104.187 132.764 104.187C130.815 104.187 129.189 103.461 127.886 102.011C126.597 100.546 125.952 98.3564 125.952 95.4414ZM132.852 89.8823C131.855 89.8823 131.028 90.3071 130.369 91.1567C129.724 92.0063 129.402 93.5664 129.402 95.8369C129.402 97.8877 129.731 99.3379 130.391 100.188C131.05 101.037 131.863 101.462 132.83 101.462C133.84 101.462 134.668 101.037 135.312 100.188C135.972 99.3379 136.301 97.7852 136.301 95.5293C136.301 93.4492 135.972 91.9917 135.312 91.1567C134.653 90.3071 133.833 89.8823 132.852 89.8823Z" fill="white"/>
<defs>
<filter id="filter0_i" x="0" y="0" width="220" height="194" filterUnits="userSpaceOnUse" color-interpolation-filters="sRGB">
<feFlood flood-opacity="0" result="BackgroundImageFix"/>
<feBlend mode="normal" in="SourceGraphic" in2="BackgroundImageFix" result="shape"/>
<feColorMatrix in="SourceAlpha" type="matrix" values="0 0 0 0 0 0 0 0 0 0 0 0 0 0 0 0 0 0 127 0" result="hardAlpha"/>
<feOffset dy="4"/>
<feGaussianBlur stdDeviation="2"/>
<feComposite in2="hardAlpha" operator="arithmetic" k2="-1" k3="1"/>
<feColorMatrix type="matrix" values="0 0 0 0 0 0 0 0 0 0 0 0 0 0 0 0 0 0 0.25 0"/>
<feBlend mode="normal" in2="shape" result="effect1_innerShadow"/>
</filter>
</defs>
</svg>
