<svg width="220" height="190" viewBox="0 0 220 190" fill="none" xmlns="http://www.w3.org/2000/svg">
<g filter="url(#filter0_i)">
<ellipse cx="59" cy="55.5" rx="59" ry="55.5" fill="#ED0F1C"/>
<ellipse cx="158.5" cy="55.5" rx="61.5" ry="55.5" fill="#ED0F1C"/>
<path d="M109.308 190C109.308 190 219.327 93.8789 211.612 77.3581C203.898 60.8373 7.61932 50.8246 7.00276 77.3581C6.3862 103.892 109.308 190 109.308 190Z" fill="#ED0F1C"/>
<rect x="59" y="43" width="97" height="93" fill="#ED0F1C"/>
</g>
<path d="M87.3242 78.6763L83.3911 78.9839C83.0396 77.4312 82.5415 76.3032 81.897 75.6001C80.8276 74.4722 79.5093 73.9082 77.9419 73.9082C76.6821 73.9082 75.5762 74.2598 74.624 74.9629C73.3789 75.8711 72.3975 77.1968 71.6797 78.9399C70.9619 80.6831 70.5884 83.166 70.5591 86.3887C71.5112 84.9385 72.6758 83.8618 74.0527 83.1587C75.4297 82.4556 76.8726 82.104 78.3813 82.104C81.0181 82.104 83.2593 83.0781 85.105 85.0264C86.9653 86.96 87.8955 89.4648 87.8955 92.541C87.8955 94.5625 87.4561 96.4448 86.5771 98.188C85.7129 99.9165 84.519 101.242 82.9956 102.165C81.4722 103.088 79.7437 103.549 77.8101 103.549C74.5142 103.549 71.8262 102.341 69.7461 99.9238C67.666 97.4922 66.626 93.4932 66.626 87.9268C66.626 81.7012 67.7759 77.1748 70.0757 74.3477C72.0825 71.8867 74.7852 70.6562 78.1836 70.6562C80.7178 70.6562 82.7905 71.3667 84.4019 72.7876C86.0278 74.2085 87.002 76.1714 87.3242 78.6763ZM71.1743 92.563C71.1743 93.9253 71.46 95.229 72.0312 96.4741C72.6172 97.7192 73.4302 98.6714 74.4702 99.3306C75.5103 99.9751 76.6016 100.297 77.7441 100.297C79.4141 100.297 80.8496 99.6235 82.0508 98.2759C83.252 96.9282 83.8525 95.0972 83.8525 92.7827C83.8525 90.5562 83.2593 88.8057 82.0728 87.5312C80.8862 86.2422 79.3921 85.5977 77.5903 85.5977C75.8032 85.5977 74.2871 86.2422 73.042 87.5312C71.7969 88.8057 71.1743 90.4829 71.1743 92.563ZM92.4438 95.5513L96.2451 95.1997C96.5674 96.9868 97.1826 98.2832 98.0908 99.0889C98.999 99.8945 100.164 100.297 101.584 100.297C102.8 100.297 103.862 100.019 104.771 99.4624C105.693 98.9058 106.448 98.166 107.034 97.2432C107.62 96.3057 108.11 95.0459 108.506 93.4639C108.901 91.8818 109.099 90.2705 109.099 88.6299C109.099 88.4541 109.092 88.1904 109.077 87.8389C108.286 89.0986 107.202 90.124 105.825 90.915C104.463 91.6914 102.983 92.0796 101.387 92.0796C98.7207 92.0796 96.4648 91.1128 94.6191 89.1792C92.7734 87.2456 91.8506 84.6968 91.8506 81.5327C91.8506 78.2661 92.8101 75.6367 94.729 73.6445C96.6626 71.6523 99.0796 70.6562 101.98 70.6562C104.075 70.6562 105.986 71.2202 107.715 72.3481C109.458 73.4761 110.776 75.0874 111.67 77.1821C112.578 79.2622 113.032 82.2798 113.032 86.2349C113.032 90.3511 112.585 93.6323 111.692 96.0786C110.798 98.5103 109.465 100.363 107.693 101.638C105.935 102.912 103.87 103.549 101.497 103.549C98.9771 103.549 96.9189 102.854 95.3223 101.462C93.7256 100.056 92.7661 98.0854 92.4438 95.5513ZM108.638 81.335C108.638 79.0645 108.03 77.2627 106.814 75.9297C105.613 74.5967 104.163 73.9302 102.463 73.9302C100.706 73.9302 99.1748 74.6479 97.8711 76.0835C96.5674 77.519 95.9155 79.3794 95.9155 81.6646C95.9155 83.7153 96.5308 85.3853 97.7612 86.6743C99.0063 87.9487 100.537 88.5859 102.354 88.5859C104.185 88.5859 105.686 87.9487 106.858 86.6743C108.044 85.3853 108.638 83.6055 108.638 81.335ZM117.646 78.5225C117.646 76.2227 118.225 74.2671 119.382 72.6558C120.54 71.0444 122.217 70.2388 124.414 70.2388C126.436 70.2388 128.105 70.9639 129.424 72.4141C130.757 73.8496 131.423 75.9663 131.423 78.7642C131.423 81.4888 130.75 83.5908 129.402 85.0703C128.069 86.5352 126.421 87.2676 124.458 87.2676C122.51 87.2676 120.884 86.5425 119.58 85.0923C118.291 83.6421 117.646 81.4521 117.646 78.5225ZM124.524 72.9634C123.542 72.9634 122.722 73.3882 122.063 74.2378C121.418 75.0874 121.096 76.6475 121.096 78.918C121.096 80.9834 121.426 82.4409 122.085 83.2905C122.744 84.1255 123.557 84.543 124.524 84.543C125.52 84.543 126.34 84.1182 126.985 83.2686C127.644 82.4189 127.974 80.8662 127.974 78.6104C127.974 76.5303 127.644 75.0728 126.985 74.2378C126.326 73.3882 125.505 72.9634 124.524 72.9634ZM124.546 104.187L142.168 70.2388H145.376L127.82 104.187H124.546ZM138.477 95.4414C138.477 93.127 139.055 91.1714 140.212 89.5747C141.37 87.9634 143.054 87.1577 145.266 87.1577C147.288 87.1577 148.958 87.8828 150.276 89.333C151.609 90.7686 152.275 92.8853 152.275 95.6831C152.275 98.4077 151.602 100.51 150.254 101.989C148.921 103.454 147.266 104.187 145.288 104.187C143.34 104.187 141.714 103.461 140.41 102.011C139.121 100.546 138.477 98.3564 138.477 95.4414ZM145.376 89.8823C144.38 89.8823 143.552 90.3071 142.893 91.1567C142.249 92.0063 141.926 93.5664 141.926 95.8369C141.926 97.8877 142.256 99.3379 142.915 100.188C143.574 101.037 144.387 101.462 145.354 101.462C146.365 101.462 147.192 101.037 147.837 100.188C148.496 99.3379 148.826 97.7852 148.826 95.5293C148.826 93.4492 148.496 91.9917 147.837 91.1567C147.178 90.3071 146.357 89.8823 145.376 89.8823Z" fill="white"/>
<defs>
<filter id="filter0_i" x="0" y="0" width="220" height="194" filterUnits="userSpaceOnUse" color-interpolation-filters="sRGB">
<feFlood flood-opacity="0" result="BackgroundImageFix"/>
<feBlend mode="normal" in="SourceGraphic" in2="BackgroundImageFix" result="shape"/>
<feColorMatrix in="SourceAlpha" type="matrix" values="0 0 0 0 0 0 0 0 0 0 0 0 0 0 0 0 0 0 127 0" result="hardAlpha"/>
<feOffset dy="4"/>
<feGaussianBlur stdDeviation="2"/>
<feComposite in2="hardAlpha" operator="arithmetic" k2="-1" k3="1"/>
<feColorMatrix type="matrix" values="0 0 0 0 0 0 0 0 0 0 0 0 0 0 0 0 0 0 0.25 0"/>
<feBlend mode="normal" in2="shape" result="effect1_innerShadow"/>
</filter>
</defs>
</svg>
