<svg width="220" height="190" viewBox="0 0 220 190" fill="none" xmlns="http://www.w3.org/2000/svg">
<g filter="url(#filter0_i)">
<ellipse cx="59" cy="55.5" rx="59" ry="55.5" fill="#ED0F1C"/>
<ellipse cx="158.5" cy="55.5" rx="61.5" ry="55.5" fill="#ED0F1C"/>
<path d="M109.308 190C109.308 190 219.327 93.8789 211.612 77.3581C203.898 60.8373 7.61932 50.8246 7.00276 77.3581C6.3862 103.892 109.308 190 109.308 190Z" fill="#ED0F1C"/>
<rect x="59" y="43" width="97" height="93" fill="#ED0F1C"/>
</g>
<path d="M67.0654 75.0068V71.2056H87.9175V74.2817C85.8667 76.4644 83.8306 79.3647 81.8091 82.9829C79.8022 86.6011 78.2495 90.3218 77.1509 94.145C76.3599 96.8403 75.8545 99.792 75.6348 103H71.5698C71.6138 100.466 72.1118 97.4043 73.064 93.8154C74.0161 90.2266 75.3784 86.7695 77.1509 83.4443C78.938 80.1045 80.835 77.292 82.8418 75.0068H67.0654ZM91.8726 94.4966L95.8276 93.9692C96.2817 96.2104 97.0508 97.8291 98.1348 98.8252C99.2334 99.8066 100.566 100.297 102.134 100.297C103.994 100.297 105.562 99.6528 106.836 98.3638C108.125 97.0747 108.77 95.478 108.77 93.5737C108.77 91.7573 108.176 90.2632 106.99 89.0913C105.803 87.9048 104.294 87.3115 102.463 87.3115C101.716 87.3115 100.786 87.458 99.6729 87.751L100.112 84.2793C100.376 84.3086 100.588 84.3232 100.75 84.3232C102.434 84.3232 103.95 83.8838 105.298 83.0049C106.646 82.126 107.319 80.771 107.319 78.9399C107.319 77.4897 106.829 76.2886 105.847 75.3364C104.866 74.3843 103.599 73.9082 102.046 73.9082C100.508 73.9082 99.2261 74.3916 98.2007 75.3584C97.1753 76.3252 96.5161 77.7754 96.2231 79.709L92.2681 79.0059C92.7515 76.3545 93.8501 74.3037 95.564 72.8535C97.2778 71.3887 99.4092 70.6562 101.958 70.6562C103.716 70.6562 105.334 71.0371 106.814 71.7988C108.293 72.5459 109.421 73.5713 110.198 74.875C110.989 76.1787 111.384 77.563 111.384 79.0278C111.384 80.4194 111.011 81.6865 110.264 82.8291C109.517 83.9717 108.411 84.8799 106.946 85.5537C108.85 85.9932 110.33 86.9087 111.384 88.3003C112.439 89.6772 112.966 91.4058 112.966 93.4858C112.966 96.2983 111.941 98.686 109.89 100.649C107.839 102.597 105.247 103.571 102.112 103.571C99.2847 103.571 96.9336 102.729 95.0586 101.044C93.1982 99.3599 92.1362 97.1772 91.8726 94.4966ZM117.646 78.5225C117.646 76.2227 118.225 74.2671 119.382 72.6558C120.54 71.0444 122.217 70.2388 124.414 70.2388C126.436 70.2388 128.105 70.9639 129.424 72.4141C130.757 73.8496 131.423 75.9663 131.423 78.7642C131.423 81.4888 130.75 83.5908 129.402 85.0703C128.069 86.5352 126.421 87.2676 124.458 87.2676C122.51 87.2676 120.884 86.5425 119.58 85.0923C118.291 83.6421 117.646 81.4521 117.646 78.5225ZM124.524 72.9634C123.542 72.9634 122.722 73.3882 122.063 74.2378C121.418 75.0874 121.096 76.6475 121.096 78.918C121.096 80.9834 121.426 82.4409 122.085 83.2905C122.744 84.1255 123.557 84.543 124.524 84.543C125.52 84.543 126.34 84.1182 126.985 83.2686C127.644 82.4189 127.974 80.8662 127.974 78.6104C127.974 76.5303 127.644 75.0728 126.985 74.2378C126.326 73.3882 125.505 72.9634 124.524 72.9634ZM124.546 104.187L142.168 70.2388H145.376L127.82 104.187H124.546ZM138.477 95.4414C138.477 93.127 139.055 91.1714 140.212 89.5747C141.37 87.9634 143.054 87.1577 145.266 87.1577C147.288 87.1577 148.958 87.8828 150.276 89.333C151.609 90.7686 152.275 92.8853 152.275 95.6831C152.275 98.4077 151.602 100.51 150.254 101.989C148.921 103.454 147.266 104.187 145.288 104.187C143.34 104.187 141.714 103.461 140.41 102.011C139.121 100.546 138.477 98.3564 138.477 95.4414ZM145.376 89.8823C144.38 89.8823 143.552 90.3071 142.893 91.1567C142.249 92.0063 141.926 93.5664 141.926 95.8369C141.926 97.8877 142.256 99.3379 142.915 100.188C143.574 101.037 144.387 101.462 145.354 101.462C146.365 101.462 147.192 101.037 147.837 100.188C148.496 99.3379 148.826 97.7852 148.826 95.5293C148.826 93.4492 148.496 91.9917 147.837 91.1567C147.178 90.3071 146.357 89.8823 145.376 89.8823Z" fill="white"/>
<defs>
<filter id="filter0_i" x="0" y="0" width="220" height="194" filterUnits="userSpaceOnUse" color-interpolation-filters="sRGB">
<feFlood flood-opacity="0" result="BackgroundImageFix"/>
<feBlend mode="normal" in="SourceGraphic" in2="BackgroundImageFix" result="shape"/>
<feColorMatrix in="SourceAlpha" type="matrix" values="0 0 0 0 0 0 0 0 0 0 0 0 0 0 0 0 0 0 127 0" result="hardAlpha"/>
<feOffset dy="4"/>
<feGaussianBlur stdDeviation="2"/>
<feComposite in2="hardAlpha" operator="arithmetic" k2="-1" k3="1"/>
<feColorMatrix type="matrix" values="0 0 0 0 0 0 0 0 0 0 0 0 0 0 0 0 0 0 0.25 0"/>
<feBlend mode="normal" in2="shape" result="effect1_innerShadow"/>
</filter>
</defs>
</svg>
