<svg width="220" height="190" viewBox="0 0 220 190" fill="none" xmlns="http://www.w3.org/2000/svg">
<g filter="url(#filter0_i)">
<ellipse cx="59" cy="55.5" rx="59" ry="55.5" fill="#ED0F1C"/>
<ellipse cx="158.5" cy="55.5" rx="61.5" ry="55.5" fill="#ED0F1C"/>
<path d="M109.308 190C109.308 190 219.327 93.8789 211.612 77.3581C203.898 60.8373 7.61932 50.8246 7.00276 77.3581C6.3862 103.892 109.308 190 109.308 190Z" fill="#ED0F1C"/>
<rect x="59" y="43" width="97" height="93" fill="#ED0F1C"/>
</g>
<path d="M79.3262 87.1138C79.3262 83.3052 79.7144 80.2437 80.4907 77.9292C81.2817 75.6001 82.4463 73.8057 83.9844 72.5459C85.5371 71.2861 87.4854 70.6562 89.8291 70.6562C91.5576 70.6562 93.0737 71.0078 94.3774 71.7109C95.6812 72.3994 96.7578 73.4028 97.6074 74.7212C98.457 76.0249 99.1235 77.6216 99.6069 79.5112C100.09 81.3862 100.332 83.9204 100.332 87.1138C100.332 90.8931 99.9438 93.9473 99.1675 96.2764C98.3911 98.5908 97.2266 100.385 95.6738 101.66C94.1357 102.919 92.1875 103.549 89.8291 103.549C86.7236 103.549 84.2847 102.436 82.5122 100.209C80.3882 97.5288 79.3262 93.1636 79.3262 87.1138ZM83.3911 87.1138C83.3911 92.4019 84.0063 95.9248 85.2368 97.6826C86.4819 99.4258 88.0127 100.297 89.8291 100.297C91.6455 100.297 93.1689 99.4185 94.3994 97.6606C95.6445 95.9028 96.2671 92.3872 96.2671 87.1138C96.2671 81.811 95.6445 78.2881 94.3994 76.5449C93.1689 74.8018 91.6309 73.9302 89.7852 73.9302C87.9688 73.9302 86.5186 74.6992 85.4346 76.2373C84.0723 78.2002 83.3911 81.8257 83.3911 87.1138ZM105.122 78.5225C105.122 76.2227 105.701 74.2671 106.858 72.6558C108.015 71.0444 109.692 70.2388 111.89 70.2388C113.911 70.2388 115.581 70.9639 116.899 72.4141C118.232 73.8496 118.899 75.9663 118.899 78.7642C118.899 81.4888 118.225 83.5908 116.877 85.0703C115.544 86.5352 113.896 87.2676 111.934 87.2676C109.985 87.2676 108.359 86.5425 107.056 85.0923C105.767 83.6421 105.122 81.4521 105.122 78.5225ZM112 72.9634C111.018 72.9634 110.198 73.3882 109.539 74.2378C108.894 75.0874 108.572 76.6475 108.572 78.918C108.572 80.9834 108.901 82.4409 109.561 83.2905C110.22 84.1255 111.033 84.543 112 84.543C112.996 84.543 113.816 84.1182 114.46 83.2686C115.12 82.4189 115.449 80.8662 115.449 78.6104C115.449 76.5303 115.12 75.0728 114.46 74.2378C113.801 73.3882 112.981 72.9634 112 72.9634ZM112.021 104.187L129.644 70.2388H132.852L115.295 104.187H112.021ZM125.952 95.4414C125.952 93.127 126.531 91.1714 127.688 89.5747C128.845 87.9634 130.53 87.1577 132.742 87.1577C134.763 87.1577 136.433 87.8828 137.751 89.333C139.084 90.7686 139.751 92.8853 139.751 95.6831C139.751 98.4077 139.077 100.51 137.729 101.989C136.396 103.454 134.741 104.187 132.764 104.187C130.815 104.187 129.189 103.461 127.886 102.011C126.597 100.546 125.952 98.3564 125.952 95.4414ZM132.852 89.8823C131.855 89.8823 131.028 90.3071 130.369 91.1567C129.724 92.0063 129.402 93.5664 129.402 95.8369C129.402 97.8877 129.731 99.3379 130.391 100.188C131.05 101.037 131.863 101.462 132.83 101.462C133.84 101.462 134.668 101.037 135.312 100.188C135.972 99.3379 136.301 97.7852 136.301 95.5293C136.301 93.4492 135.972 91.9917 135.312 91.1567C134.653 90.3071 133.833 89.8823 132.852 89.8823Z" fill="white"/>
<defs>
<filter id="filter0_i" x="0" y="0" width="220" height="194" filterUnits="userSpaceOnUse" color-interpolation-filters="sRGB">
<feFlood flood-opacity="0" result="BackgroundImageFix"/>
<feBlend mode="normal" in="SourceGraphic" in2="BackgroundImageFix" result="shape"/>
<feColorMatrix in="SourceAlpha" type="matrix" values="0 0 0 0 0 0 0 0 0 0 0 0 0 0 0 0 0 0 127 0" result="hardAlpha"/>
<feOffset dy="4"/>
<feGaussianBlur stdDeviation="2"/>
<feComposite in2="hardAlpha" operator="arithmetic" k2="-1" k3="1"/>
<feColorMatrix type="matrix" values="0 0 0 0 0 0 0 0 0 0 0 0 0 0 0 0 0 0 0.25 0"/>
<feBlend mode="normal" in2="shape" result="effect1_innerShadow"/>
</filter>
</defs>
</svg>
