<svg width="220" height="190" viewBox="0 0 220 190" fill="none" xmlns="http://www.w3.org/2000/svg">
<g filter="url(#filter0_i)">
<ellipse cx="59" cy="55.5" rx="59" ry="55.5" fill="#ED0F1C"/>
<ellipse cx="158.5" cy="55.5" rx="61.5" ry="55.5" fill="#ED0F1C"/>
<path d="M109.308 190C109.308 190 219.327 93.8789 211.612 77.3581C203.898 60.8373 7.61932 50.8246 7.00276 77.3581C6.3862 103.892 109.308 190 109.308 190Z" fill="#ED0F1C"/>
<rect x="59" y="43" width="97" height="93" fill="#ED0F1C"/>
</g>
<path d="M91.5039 98H87.9883V75.5977C87.1419 76.4049 86.0286 77.2122 84.6484 78.0195C83.2812 78.8268 82.0508 79.4323 80.957 79.8359V76.4375C82.9232 75.513 84.6419 74.3932 86.1133 73.0781C87.5846 71.763 88.6263 70.487 89.2383 69.25H91.5039V98ZM100.527 83.8789C100.527 80.4935 100.872 77.7721 101.562 75.7148C102.266 73.6445 103.301 72.0495 104.668 70.9297C106.048 69.8099 107.78 69.25 109.863 69.25C111.4 69.25 112.747 69.5625 113.906 70.1875C115.065 70.7995 116.022 71.6914 116.777 72.8633C117.533 74.0221 118.125 75.4414 118.555 77.1211C118.984 78.7878 119.199 81.0404 119.199 83.8789C119.199 87.2383 118.854 89.9531 118.164 92.0234C117.474 94.0807 116.439 95.6758 115.059 96.8086C113.691 97.9284 111.96 98.4883 109.863 98.4883C107.103 98.4883 104.935 97.4987 103.359 95.5195C101.471 93.1367 100.527 89.2565 100.527 83.8789ZM104.141 83.8789C104.141 88.5794 104.688 91.7109 105.781 93.2734C106.888 94.8229 108.249 95.5977 109.863 95.5977C111.478 95.5977 112.832 94.8164 113.926 93.2539C115.033 91.6914 115.586 88.5664 115.586 83.8789C115.586 79.1654 115.033 76.0339 113.926 74.4844C112.832 72.9349 111.465 72.1602 109.824 72.1602C108.21 72.1602 106.921 72.8438 105.957 74.2109C104.746 75.9557 104.141 79.1784 104.141 83.8789ZM122.793 83.8789C122.793 80.4935 123.138 77.7721 123.828 75.7148C124.531 73.6445 125.566 72.0495 126.934 70.9297C128.314 69.8099 130.046 69.25 132.129 69.25C133.665 69.25 135.013 69.5625 136.172 70.1875C137.331 70.7995 138.288 71.6914 139.043 72.8633C139.798 74.0221 140.391 75.4414 140.82 77.1211C141.25 78.7878 141.465 81.0404 141.465 83.8789C141.465 87.2383 141.12 89.9531 140.43 92.0234C139.74 94.0807 138.704 95.6758 137.324 96.8086C135.957 97.9284 134.225 98.4883 132.129 98.4883C129.368 98.4883 127.201 97.4987 125.625 95.5195C123.737 93.1367 122.793 89.2565 122.793 83.8789ZM126.406 83.8789C126.406 88.5794 126.953 91.7109 128.047 93.2734C129.154 94.8229 130.514 95.5977 132.129 95.5977C133.743 95.5977 135.098 94.8164 136.191 93.2539C137.298 91.6914 137.852 88.5664 137.852 83.8789C137.852 79.1654 137.298 76.0339 136.191 74.4844C135.098 72.9349 133.73 72.1602 132.09 72.1602C130.475 72.1602 129.186 72.8438 128.223 74.2109C127.012 75.9557 126.406 79.1784 126.406 83.8789ZM94.5312 122.242C94.5312 120.198 95.0456 118.46 96.0742 117.027C97.1029 115.595 98.5938 114.879 100.547 114.879C102.344 114.879 103.828 115.523 105 116.812C106.185 118.089 106.777 119.97 106.777 122.457C106.777 124.879 106.178 126.747 104.98 128.062C103.796 129.365 102.331 130.016 100.586 130.016C98.8542 130.016 97.4089 129.371 96.25 128.082C95.1042 126.793 94.5312 124.846 94.5312 122.242ZM100.645 117.301C99.7721 117.301 99.043 117.678 98.457 118.434C97.8841 119.189 97.5977 120.576 97.5977 122.594C97.5977 124.43 97.8906 125.725 98.4766 126.48C99.0625 127.223 99.7852 127.594 100.645 127.594C101.53 127.594 102.259 127.216 102.832 126.461C103.418 125.706 103.711 124.326 103.711 122.32C103.711 120.471 103.418 119.176 102.832 118.434C102.246 117.678 101.517 117.301 100.645 117.301ZM100.664 145.055L116.328 114.879H119.18L103.574 145.055H100.664ZM113.047 137.281C113.047 135.224 113.561 133.486 114.59 132.066C115.618 130.634 117.116 129.918 119.082 129.918C120.879 129.918 122.363 130.562 123.535 131.852C124.72 133.128 125.312 135.009 125.312 137.496C125.312 139.918 124.714 141.786 123.516 143.102C122.331 144.404 120.859 145.055 119.102 145.055C117.37 145.055 115.924 144.41 114.766 143.121C113.62 141.819 113.047 139.872 113.047 137.281ZM119.18 132.34C118.294 132.34 117.559 132.717 116.973 133.473C116.4 134.228 116.113 135.615 116.113 137.633C116.113 139.456 116.406 140.745 116.992 141.5C117.578 142.255 118.301 142.633 119.16 142.633C120.059 142.633 120.794 142.255 121.367 141.5C121.953 140.745 122.246 139.365 122.246 137.359C122.246 135.51 121.953 134.215 121.367 133.473C120.781 132.717 120.052 132.34 119.18 132.34Z" fill="white"/>
<defs>
<filter id="filter0_i" x="0" y="0" width="220" height="194" filterUnits="userSpaceOnUse" color-interpolation-filters="sRGB">
<feFlood flood-opacity="0" result="BackgroundImageFix"/>
<feBlend mode="normal" in="SourceGraphic" in2="BackgroundImageFix" result="shape"/>
<feColorMatrix in="SourceAlpha" type="matrix" values="0 0 0 0 0 0 0 0 0 0 0 0 0 0 0 0 0 0 127 0" result="hardAlpha"/>
<feOffset dy="4"/>
<feGaussianBlur stdDeviation="2"/>
<feComposite in2="hardAlpha" operator="arithmetic" k2="-1" k3="1"/>
<feColorMatrix type="matrix" values="0 0 0 0 0 0 0 0 0 0 0 0 0 0 0 0 0 0 0.25 0"/>
<feBlend mode="normal" in2="shape" result="effect1_innerShadow"/>
</filter>
</defs>
</svg>
