<svg width="220" height="190" viewBox="0 0 220 190" fill="none" xmlns="http://www.w3.org/2000/svg">
<g filter="url(#filter0_i)">
<ellipse cx="59" cy="55.5" rx="59" ry="55.5" fill="#ED0F1C"/>
<ellipse cx="158.5" cy="55.5" rx="61.5" ry="55.5" fill="#ED0F1C"/>
<path d="M109.308 190C109.308 190 219.327 93.8789 211.612 77.3581C203.898 60.8373 7.61932 50.8246 7.00276 77.3581C6.3862 103.892 109.308 190 109.308 190Z" fill="#ED0F1C"/>
<rect x="59" y="43" width="97" height="93" fill="#ED0F1C"/>
</g>
<path d="M87.5879 99.1987V103H66.2964C66.2671 102.048 66.4209 101.132 66.7578 100.253C67.2998 98.8032 68.1641 97.375 69.3506 95.9688C70.5518 94.5625 72.2803 92.9365 74.5361 91.0908C78.0371 88.2197 80.4028 85.9492 81.6333 84.2793C82.8638 82.5947 83.479 81.0054 83.479 79.5112C83.479 77.9438 82.915 76.6255 81.7871 75.5562C80.6738 74.4722 79.2163 73.9302 77.4146 73.9302C75.5103 73.9302 73.9868 74.5015 72.8442 75.644C71.7017 76.7866 71.123 78.3687 71.1084 80.3901L67.0435 79.9727C67.3218 76.9404 68.3691 74.6333 70.1855 73.0513C72.002 71.4546 74.4409 70.6562 77.5024 70.6562C80.5933 70.6562 83.0396 71.5132 84.8413 73.2271C86.6431 74.9409 87.5439 77.0649 87.5439 79.5991C87.5439 80.8882 87.2803 82.1553 86.7529 83.4004C86.2256 84.6455 85.3467 85.9565 84.1162 87.3335C82.9004 88.7104 80.8716 90.6001 78.0298 93.0024C75.6567 94.9946 74.1333 96.3496 73.4595 97.0674C72.7856 97.7705 72.229 98.481 71.7896 99.1987H87.5879ZM97.937 85.5317C96.2964 84.9312 95.0806 84.0742 94.2896 82.9609C93.4985 81.8477 93.103 80.5146 93.103 78.9619C93.103 76.6182 93.9453 74.6479 95.6299 73.0513C97.3145 71.4546 99.5557 70.6562 102.354 70.6562C105.166 70.6562 107.429 71.4766 109.143 73.1172C110.857 74.7432 111.714 76.728 111.714 79.0718C111.714 80.5659 111.318 81.8696 110.527 82.9829C109.751 84.0815 108.564 84.9312 106.968 85.5317C108.945 86.1763 110.447 87.2163 111.472 88.6519C112.512 90.0874 113.032 91.8013 113.032 93.7935C113.032 96.5474 112.058 98.8618 110.11 100.737C108.162 102.612 105.598 103.549 102.419 103.549C99.2407 103.549 96.6772 102.612 94.729 100.737C92.7808 98.8472 91.8066 96.4961 91.8066 93.6836C91.8066 91.5889 92.334 89.8384 93.3887 88.4321C94.458 87.0112 95.9741 86.0444 97.937 85.5317ZM97.146 78.8301C97.146 80.3535 97.6367 81.5986 98.6182 82.5654C99.5996 83.5322 100.874 84.0156 102.441 84.0156C103.965 84.0156 105.21 83.5396 106.177 82.5874C107.158 81.6206 107.649 80.4414 107.649 79.0498C107.649 77.5996 107.144 76.3838 106.133 75.4023C105.137 74.4062 103.892 73.9082 102.397 73.9082C100.889 73.9082 99.6362 74.3916 98.6401 75.3584C97.644 76.3252 97.146 77.4824 97.146 78.8301ZM95.8716 93.7056C95.8716 94.8335 96.1353 95.9248 96.6626 96.9795C97.2046 98.0342 98.0029 98.8545 99.0576 99.4404C100.112 100.012 101.248 100.297 102.463 100.297C104.353 100.297 105.913 99.6895 107.144 98.4736C108.374 97.2578 108.989 95.7124 108.989 93.8374C108.989 91.9331 108.352 90.3584 107.078 89.1133C105.818 87.8682 104.236 87.2456 102.332 87.2456C100.471 87.2456 98.9258 87.8608 97.6953 89.0913C96.4795 90.3218 95.8716 91.8599 95.8716 93.7056ZM117.646 78.5225C117.646 76.2227 118.225 74.2671 119.382 72.6558C120.54 71.0444 122.217 70.2388 124.414 70.2388C126.436 70.2388 128.105 70.9639 129.424 72.4141C130.757 73.8496 131.423 75.9663 131.423 78.7642C131.423 81.4888 130.75 83.5908 129.402 85.0703C128.069 86.5352 126.421 87.2676 124.458 87.2676C122.51 87.2676 120.884 86.5425 119.58 85.0923C118.291 83.6421 117.646 81.4521 117.646 78.5225ZM124.524 72.9634C123.542 72.9634 122.722 73.3882 122.063 74.2378C121.418 75.0874 121.096 76.6475 121.096 78.918C121.096 80.9834 121.426 82.4409 122.085 83.2905C122.744 84.1255 123.557 84.543 124.524 84.543C125.52 84.543 126.34 84.1182 126.985 83.2686C127.644 82.4189 127.974 80.8662 127.974 78.6104C127.974 76.5303 127.644 75.0728 126.985 74.2378C126.326 73.3882 125.505 72.9634 124.524 72.9634ZM124.546 104.187L142.168 70.2388H145.376L127.82 104.187H124.546ZM138.477 95.4414C138.477 93.127 139.055 91.1714 140.212 89.5747C141.37 87.9634 143.054 87.1577 145.266 87.1577C147.288 87.1577 148.958 87.8828 150.276 89.333C151.609 90.7686 152.275 92.8853 152.275 95.6831C152.275 98.4077 151.602 100.51 150.254 101.989C148.921 103.454 147.266 104.187 145.288 104.187C143.34 104.187 141.714 103.461 140.41 102.011C139.121 100.546 138.477 98.3564 138.477 95.4414ZM145.376 89.8823C144.38 89.8823 143.552 90.3071 142.893 91.1567C142.249 92.0063 141.926 93.5664 141.926 95.8369C141.926 97.8877 142.256 99.3379 142.915 100.188C143.574 101.037 144.387 101.462 145.354 101.462C146.365 101.462 147.192 101.037 147.837 100.188C148.496 99.3379 148.826 97.7852 148.826 95.5293C148.826 93.4492 148.496 91.9917 147.837 91.1567C147.178 90.3071 146.357 89.8823 145.376 89.8823Z" fill="white"/>
<defs>
<filter id="filter0_i" x="0" y="0" width="220" height="194" filterUnits="userSpaceOnUse" color-interpolation-filters="sRGB">
<feFlood flood-opacity="0" result="BackgroundImageFix"/>
<feBlend mode="normal" in="SourceGraphic" in2="BackgroundImageFix" result="shape"/>
<feColorMatrix in="SourceAlpha" type="matrix" values="0 0 0 0 0 0 0 0 0 0 0 0 0 0 0 0 0 0 127 0" result="hardAlpha"/>
<feOffset dy="4"/>
<feGaussianBlur stdDeviation="2"/>
<feComposite in2="hardAlpha" operator="arithmetic" k2="-1" k3="1"/>
<feColorMatrix type="matrix" values="0 0 0 0 0 0 0 0 0 0 0 0 0 0 0 0 0 0 0.25 0"/>
<feBlend mode="normal" in2="shape" result="effect1_innerShadow"/>
</filter>
</defs>
</svg>
