<svg width="220" height="190" viewBox="0 0 220 190" fill="none" xmlns="http://www.w3.org/2000/svg">
<g filter="url(#filter0_i)">
<ellipse cx="59" cy="55.5" rx="59" ry="55.5" fill="#ED0F1C"/>
<ellipse cx="158.5" cy="55.5" rx="61.5" ry="55.5" fill="#ED0F1C"/>
<path d="M109.308 190C109.308 190 219.327 93.8789 211.612 77.3581C203.898 60.8373 7.61932 50.8246 7.00276 77.3581C6.3862 103.892 109.308 190 109.308 190Z" fill="#ED0F1C"/>
<rect x="59" y="43" width="97" height="93" fill="#ED0F1C"/>
</g>
<path d="M67.0654 75.0068V71.2056H87.9175V74.2817C85.8667 76.4644 83.8306 79.3647 81.8091 82.9829C79.8022 86.6011 78.2495 90.3218 77.1509 94.145C76.3599 96.8403 75.8545 99.792 75.6348 103H71.5698C71.6138 100.466 72.1118 97.4043 73.064 93.8154C74.0161 90.2266 75.3784 86.7695 77.1509 83.4443C78.938 80.1045 80.835 77.292 82.8418 75.0068H67.0654ZM112.637 99.1987V103H91.3452C91.3159 102.048 91.4697 101.132 91.8066 100.253C92.3486 98.8032 93.2129 97.375 94.3994 95.9688C95.6006 94.5625 97.3291 92.9365 99.585 91.0908C103.086 88.2197 105.452 85.9492 106.682 84.2793C107.913 82.5947 108.528 81.0054 108.528 79.5112C108.528 77.9438 107.964 76.6255 106.836 75.5562C105.723 74.4722 104.265 73.9302 102.463 73.9302C100.559 73.9302 99.0356 74.5015 97.8931 75.644C96.7505 76.7866 96.1719 78.3687 96.1572 80.3901L92.0923 79.9727C92.3706 76.9404 93.418 74.6333 95.2344 73.0513C97.0508 71.4546 99.4897 70.6562 102.551 70.6562C105.642 70.6562 108.088 71.5132 109.89 73.2271C111.692 74.9409 112.593 77.0649 112.593 79.5991C112.593 80.8882 112.329 82.1553 111.802 83.4004C111.274 84.6455 110.396 85.9565 109.165 87.3335C107.949 88.7104 105.92 90.6001 103.079 93.0024C100.706 94.9946 99.1821 96.3496 98.5083 97.0674C97.8345 97.7705 97.2778 98.481 96.8384 99.1987H112.637ZM117.646 78.5225C117.646 76.2227 118.225 74.2671 119.382 72.6558C120.54 71.0444 122.217 70.2388 124.414 70.2388C126.436 70.2388 128.105 70.9639 129.424 72.4141C130.757 73.8496 131.423 75.9663 131.423 78.7642C131.423 81.4888 130.75 83.5908 129.402 85.0703C128.069 86.5352 126.421 87.2676 124.458 87.2676C122.51 87.2676 120.884 86.5425 119.58 85.0923C118.291 83.6421 117.646 81.4521 117.646 78.5225ZM124.524 72.9634C123.542 72.9634 122.722 73.3882 122.063 74.2378C121.418 75.0874 121.096 76.6475 121.096 78.918C121.096 80.9834 121.426 82.4409 122.085 83.2905C122.744 84.1255 123.557 84.543 124.524 84.543C125.52 84.543 126.34 84.1182 126.985 83.2686C127.644 82.4189 127.974 80.8662 127.974 78.6104C127.974 76.5303 127.644 75.0728 126.985 74.2378C126.326 73.3882 125.505 72.9634 124.524 72.9634ZM124.546 104.187L142.168 70.2388H145.376L127.82 104.187H124.546ZM138.477 95.4414C138.477 93.127 139.055 91.1714 140.212 89.5747C141.37 87.9634 143.054 87.1577 145.266 87.1577C147.288 87.1577 148.958 87.8828 150.276 89.333C151.609 90.7686 152.275 92.8853 152.275 95.6831C152.275 98.4077 151.602 100.51 150.254 101.989C148.921 103.454 147.266 104.187 145.288 104.187C143.34 104.187 141.714 103.461 140.41 102.011C139.121 100.546 138.477 98.3564 138.477 95.4414ZM145.376 89.8823C144.38 89.8823 143.552 90.3071 142.893 91.1567C142.249 92.0063 141.926 93.5664 141.926 95.8369C141.926 97.8877 142.256 99.3379 142.915 100.188C143.574 101.037 144.387 101.462 145.354 101.462C146.365 101.462 147.192 101.037 147.837 100.188C148.496 99.3379 148.826 97.7852 148.826 95.5293C148.826 93.4492 148.496 91.9917 147.837 91.1567C147.178 90.3071 146.357 89.8823 145.376 89.8823Z" fill="white"/>
<defs>
<filter id="filter0_i" x="0" y="0" width="220" height="194" filterUnits="userSpaceOnUse" color-interpolation-filters="sRGB">
<feFlood flood-opacity="0" result="BackgroundImageFix"/>
<feBlend mode="normal" in="SourceGraphic" in2="BackgroundImageFix" result="shape"/>
<feColorMatrix in="SourceAlpha" type="matrix" values="0 0 0 0 0 0 0 0 0 0 0 0 0 0 0 0 0 0 127 0" result="hardAlpha"/>
<feOffset dy="4"/>
<feGaussianBlur stdDeviation="2"/>
<feComposite in2="hardAlpha" operator="arithmetic" k2="-1" k3="1"/>
<feColorMatrix type="matrix" values="0 0 0 0 0 0 0 0 0 0 0 0 0 0 0 0 0 0 0.25 0"/>
<feBlend mode="normal" in2="shape" result="effect1_innerShadow"/>
</filter>
</defs>
</svg>
