<svg width="220" height="190" viewBox="0 0 220 190" fill="none" xmlns="http://www.w3.org/2000/svg">
<g filter="url(#filter0_i)">
<ellipse cx="59" cy="55.5" rx="59" ry="55.5" fill="#ED0F1C"/>
<ellipse cx="158.5" cy="55.5" rx="61.5" ry="55.5" fill="#ED0F1C"/>
<path d="M109.308 190C109.308 190 219.327 93.8789 211.612 77.3581C203.898 60.8373 7.61932 50.8246 7.00276 77.3581C6.3862 103.892 109.308 190 109.308 190Z" fill="#ED0F1C"/>
<rect x="59" y="43" width="97" height="93" fill="#ED0F1C"/>
</g>
<path d="M85.4126 85.5317C83.772 84.9312 82.5562 84.0742 81.7651 82.9609C80.9741 81.8477 80.5786 80.5146 80.5786 78.9619C80.5786 76.6182 81.4209 74.6479 83.1055 73.0513C84.79 71.4546 87.0312 70.6562 89.8291 70.6562C92.6416 70.6562 94.9048 71.4766 96.6187 73.1172C98.3325 74.7432 99.1895 76.728 99.1895 79.0718C99.1895 80.5659 98.7939 81.8696 98.0029 82.9829C97.2266 84.0815 96.04 84.9312 94.4434 85.5317C96.4209 86.1763 97.9224 87.2163 98.9478 88.6519C99.9878 90.0874 100.508 91.8013 100.508 93.7935C100.508 96.5474 99.5337 98.8618 97.5854 100.737C95.6372 102.612 93.0737 103.549 89.895 103.549C86.7163 103.549 84.1528 102.612 82.2046 100.737C80.2563 98.8472 79.2822 96.4961 79.2822 93.6836C79.2822 91.5889 79.8096 89.8384 80.8643 88.4321C81.9336 87.0112 83.4497 86.0444 85.4126 85.5317ZM84.6216 78.8301C84.6216 80.3535 85.1123 81.5986 86.0938 82.5654C87.0752 83.5322 88.3496 84.0156 89.917 84.0156C91.4404 84.0156 92.6855 83.5396 93.6523 82.5874C94.6338 81.6206 95.1245 80.4414 95.1245 79.0498C95.1245 77.5996 94.6191 76.3838 93.6084 75.4023C92.6123 74.4062 91.3672 73.9082 89.873 73.9082C88.3643 73.9082 87.1118 74.3916 86.1157 75.3584C85.1196 76.3252 84.6216 77.4824 84.6216 78.8301ZM83.3472 93.7056C83.3472 94.8335 83.6108 95.9248 84.1382 96.9795C84.6802 98.0342 85.4785 98.8545 86.5332 99.4404C87.5879 100.012 88.7231 100.297 89.939 100.297C91.8286 100.297 93.3887 99.6895 94.6191 98.4736C95.8496 97.2578 96.4648 95.7124 96.4648 93.8374C96.4648 91.9331 95.8276 90.3584 94.5532 89.1133C93.2935 87.8682 91.7114 87.2456 89.8071 87.2456C87.9468 87.2456 86.4014 87.8608 85.1709 89.0913C83.9551 90.3218 83.3472 91.8599 83.3472 93.7056ZM105.122 78.5225C105.122 76.2227 105.701 74.2671 106.858 72.6558C108.015 71.0444 109.692 70.2388 111.89 70.2388C113.911 70.2388 115.581 70.9639 116.899 72.4141C118.232 73.8496 118.899 75.9663 118.899 78.7642C118.899 81.4888 118.225 83.5908 116.877 85.0703C115.544 86.5352 113.896 87.2676 111.934 87.2676C109.985 87.2676 108.359 86.5425 107.056 85.0923C105.767 83.6421 105.122 81.4521 105.122 78.5225ZM112 72.9634C111.018 72.9634 110.198 73.3882 109.539 74.2378C108.894 75.0874 108.572 76.6475 108.572 78.918C108.572 80.9834 108.901 82.4409 109.561 83.2905C110.22 84.1255 111.033 84.543 112 84.543C112.996 84.543 113.816 84.1182 114.46 83.2686C115.12 82.4189 115.449 80.8662 115.449 78.6104C115.449 76.5303 115.12 75.0728 114.46 74.2378C113.801 73.3882 112.981 72.9634 112 72.9634ZM112.021 104.187L129.644 70.2388H132.852L115.295 104.187H112.021ZM125.952 95.4414C125.952 93.127 126.531 91.1714 127.688 89.5747C128.845 87.9634 130.53 87.1577 132.742 87.1577C134.763 87.1577 136.433 87.8828 137.751 89.333C139.084 90.7686 139.751 92.8853 139.751 95.6831C139.751 98.4077 139.077 100.51 137.729 101.989C136.396 103.454 134.741 104.187 132.764 104.187C130.815 104.187 129.189 103.461 127.886 102.011C126.597 100.546 125.952 98.3564 125.952 95.4414ZM132.852 89.8823C131.855 89.8823 131.028 90.3071 130.369 91.1567C129.724 92.0063 129.402 93.5664 129.402 95.8369C129.402 97.8877 129.731 99.3379 130.391 100.188C131.05 101.037 131.863 101.462 132.83 101.462C133.84 101.462 134.668 101.037 135.312 100.188C135.972 99.3379 136.301 97.7852 136.301 95.5293C136.301 93.4492 135.972 91.9917 135.312 91.1567C134.653 90.3071 133.833 89.8823 132.852 89.8823Z" fill="white"/>
<defs>
<filter id="filter0_i" x="0" y="0" width="220" height="194" filterUnits="userSpaceOnUse" color-interpolation-filters="sRGB">
<feFlood flood-opacity="0" result="BackgroundImageFix"/>
<feBlend mode="normal" in="SourceGraphic" in2="BackgroundImageFix" result="shape"/>
<feColorMatrix in="SourceAlpha" type="matrix" values="0 0 0 0 0 0 0 0 0 0 0 0 0 0 0 0 0 0 127 0" result="hardAlpha"/>
<feOffset dy="4"/>
<feGaussianBlur stdDeviation="2"/>
<feComposite in2="hardAlpha" operator="arithmetic" k2="-1" k3="1"/>
<feColorMatrix type="matrix" values="0 0 0 0 0 0 0 0 0 0 0 0 0 0 0 0 0 0 0.25 0"/>
<feBlend mode="normal" in2="shape" result="effect1_innerShadow"/>
</filter>
</defs>
</svg>
