<svg width="220" height="190" viewBox="0 0 220 190" fill="none" xmlns="http://www.w3.org/2000/svg">
<g filter="url(#filter0_i)">
<ellipse cx="59" cy="55.5" rx="59" ry="55.5" fill="#ED0F1C"/>
<ellipse cx="158.5" cy="55.5" rx="61.5" ry="55.5" fill="#ED0F1C"/>
<path d="M109.308 190C109.308 190 219.327 93.8789 211.612 77.3581C203.898 60.8373 7.61932 50.8246 7.00276 77.3581C6.3862 103.892 109.308 190 109.308 190Z" fill="#ED0F1C"/>
<rect x="59" y="43" width="97" height="93" fill="#ED0F1C"/>
</g>
<path d="M67.395 95.5513L71.1963 95.1997C71.5186 96.9868 72.1338 98.2832 73.042 99.0889C73.9502 99.8945 75.1147 100.297 76.5356 100.297C77.7515 100.297 78.8135 100.019 79.7217 99.4624C80.6445 98.9058 81.3989 98.166 81.9849 97.2432C82.5708 96.3057 83.0615 95.0459 83.457 93.4639C83.8525 91.8818 84.0503 90.2705 84.0503 88.6299C84.0503 88.4541 84.043 88.1904 84.0283 87.8389C83.2373 89.0986 82.1533 90.124 80.7764 90.915C79.4141 91.6914 77.9346 92.0796 76.3379 92.0796C73.6719 92.0796 71.416 91.1128 69.5703 89.1792C67.7246 87.2456 66.8018 84.6968 66.8018 81.5327C66.8018 78.2661 67.7612 75.6367 69.6802 73.6445C71.6138 71.6523 74.0308 70.6562 76.9312 70.6562C79.0259 70.6562 80.9375 71.2202 82.666 72.3481C84.4092 73.4761 85.7275 75.0874 86.6211 77.1821C87.5293 79.2622 87.9834 82.2798 87.9834 86.2349C87.9834 90.3511 87.5366 93.6323 86.6431 96.0786C85.7495 98.5103 84.4165 100.363 82.644 101.638C80.8862 102.912 78.8208 103.549 76.4478 103.549C73.9282 103.549 71.8701 102.854 70.2734 101.462C68.6768 100.056 67.7173 98.0854 67.395 95.5513ZM83.5889 81.335C83.5889 79.0645 82.981 77.2627 81.7651 75.9297C80.564 74.5967 79.1138 73.9302 77.4146 73.9302C75.6567 73.9302 74.126 74.6479 72.8223 76.0835C71.5186 77.519 70.8667 79.3794 70.8667 81.6646C70.8667 83.7153 71.4819 85.3853 72.7124 86.6743C73.9575 87.9487 75.4883 88.5859 77.3047 88.5859C79.1357 88.5859 80.6372 87.9487 81.8091 86.6743C82.9956 85.3853 83.5889 83.6055 83.5889 81.335ZM91.8506 94.5625L96.0034 94.2109C96.311 96.2324 97.0215 97.7559 98.1348 98.7812C99.2627 99.792 100.618 100.297 102.2 100.297C104.104 100.297 105.715 99.5796 107.034 98.144C108.352 96.7085 109.011 94.8042 109.011 92.4312C109.011 90.1753 108.374 88.3955 107.1 87.0918C105.84 85.7881 104.185 85.1362 102.134 85.1362C100.859 85.1362 99.7095 85.4292 98.6841 86.0151C97.6587 86.5864 96.853 87.3335 96.2671 88.2563L92.5537 87.7729L95.6738 71.2275H111.692V75.0068H98.8379L97.1021 83.6641C99.0356 82.3164 101.064 81.6426 103.188 81.6426C106.001 81.6426 108.374 82.6167 110.308 84.5649C112.241 86.5132 113.208 89.0181 113.208 92.0796C113.208 94.9946 112.358 97.5142 110.659 99.6382C108.594 102.246 105.774 103.549 102.2 103.549C99.27 103.549 96.875 102.729 95.0146 101.088C93.1689 99.4478 92.1143 97.2725 91.8506 94.5625ZM117.646 78.5225C117.646 76.2227 118.225 74.2671 119.382 72.6558C120.54 71.0444 122.217 70.2388 124.414 70.2388C126.436 70.2388 128.105 70.9639 129.424 72.4141C130.757 73.8496 131.423 75.9663 131.423 78.7642C131.423 81.4888 130.75 83.5908 129.402 85.0703C128.069 86.5352 126.421 87.2676 124.458 87.2676C122.51 87.2676 120.884 86.5425 119.58 85.0923C118.291 83.6421 117.646 81.4521 117.646 78.5225ZM124.524 72.9634C123.542 72.9634 122.722 73.3882 122.063 74.2378C121.418 75.0874 121.096 76.6475 121.096 78.918C121.096 80.9834 121.426 82.4409 122.085 83.2905C122.744 84.1255 123.557 84.543 124.524 84.543C125.52 84.543 126.34 84.1182 126.985 83.2686C127.644 82.4189 127.974 80.8662 127.974 78.6104C127.974 76.5303 127.644 75.0728 126.985 74.2378C126.326 73.3882 125.505 72.9634 124.524 72.9634ZM124.546 104.187L142.168 70.2388H145.376L127.82 104.187H124.546ZM138.477 95.4414C138.477 93.127 139.055 91.1714 140.212 89.5747C141.37 87.9634 143.054 87.1577 145.266 87.1577C147.288 87.1577 148.958 87.8828 150.276 89.333C151.609 90.7686 152.275 92.8853 152.275 95.6831C152.275 98.4077 151.602 100.51 150.254 101.989C148.921 103.454 147.266 104.187 145.288 104.187C143.34 104.187 141.714 103.461 140.41 102.011C139.121 100.546 138.477 98.3564 138.477 95.4414ZM145.376 89.8823C144.38 89.8823 143.552 90.3071 142.893 91.1567C142.249 92.0063 141.926 93.5664 141.926 95.8369C141.926 97.8877 142.256 99.3379 142.915 100.188C143.574 101.037 144.387 101.462 145.354 101.462C146.365 101.462 147.192 101.037 147.837 100.188C148.496 99.3379 148.826 97.7852 148.826 95.5293C148.826 93.4492 148.496 91.9917 147.837 91.1567C147.178 90.3071 146.357 89.8823 145.376 89.8823Z" fill="white"/>
<defs>
<filter id="filter0_i" x="0" y="0" width="220" height="194" filterUnits="userSpaceOnUse" color-interpolation-filters="sRGB">
<feFlood flood-opacity="0" result="BackgroundImageFix"/>
<feBlend mode="normal" in="SourceGraphic" in2="BackgroundImageFix" result="shape"/>
<feColorMatrix in="SourceAlpha" type="matrix" values="0 0 0 0 0 0 0 0 0 0 0 0 0 0 0 0 0 0 127 0" result="hardAlpha"/>
<feOffset dy="4"/>
<feGaussianBlur stdDeviation="2"/>
<feComposite in2="hardAlpha" operator="arithmetic" k2="-1" k3="1"/>
<feColorMatrix type="matrix" values="0 0 0 0 0 0 0 0 0 0 0 0 0 0 0 0 0 0 0.25 0"/>
<feBlend mode="normal" in2="shape" result="effect1_innerShadow"/>
</filter>
</defs>
</svg>
